<?xml version="1.0" encoding="UTF-8" standalone="no"?>
<svg
   xmlns:dc="http://purl.org/dc/elements/1.1/"
   xmlns:cc="http://creativecommons.org/ns#"
   xmlns:rdf="http://www.w3.org/1999/02/22-rdf-syntax-ns#"
   xmlns:svg="http://www.w3.org/2000/svg"
   xmlns="http://www.w3.org/2000/svg"
   xmlns:sodipodi="http://sodipodi.sourceforge.net/DTD/sodipodi-0.dtd"
   xmlns:inkscape="http://www.inkscape.org/namespaces/inkscape"
   version="1.1"
   x="0px"
   y="0px"
   viewBox="0 0 100 125"
   id="svg10"
   sodipodi:docname="apps.svg"
   inkscape:version="1.0.2 (e86c870879, 2021-01-15)">
  <metadata
     id="metadata16">
    <rdf:RDF>
      <cc:Work
         rdf:about="">
        <dc:format>image/svg+xml</dc:format>
        <dc:type
           rdf:resource="http://purl.org/dc/dcmitype/StillImage" />
        <dc:title />
      </cc:Work>
    </rdf:RDF>
  </metadata>
  <defs
     id="defs14" />
  <sodipodi:namedview
     pagecolor="#000000"
     bordercolor="#666666"
     borderopacity="1"
     objecttolerance="10"
     gridtolerance="10"
     guidetolerance="10"
     inkscape:pageopacity="0"
     inkscape:pageshadow="2"
     inkscape:window-width="1366"
     inkscape:window-height="704"
     id="namedview12"
     showgrid="false"
     inkscape:pagecheckerboard="true"
     inkscape:zoom="3.4317138"
     inkscape:cx="10.087393"
     inkscape:cy="52.105207"
     inkscape:window-x="0"
     inkscape:window-y="0"
     inkscape:window-maximized="1"
     inkscape:current-layer="svg10"
     inkscape:document-rotation="0" />
  <g
     transform="matrix(0.37203143,0,0,0.37203143,14.800818,-345.20024)"
     id="g4"
     style="fill:#ffffff;fill-opacity:1">
    <path
       style="color:#000000;fill:#ffffff;fill-opacity:1;enable-background:accumulate"
       d="m 36,970.36218 -4,10 H 18 c -3.878,0 -7,3.122 -7,7 v 40.00002 c 0,3.878 3.122,7 7,7 h 64 c 3.878,0 7,-3.122 7,-7 v -40.00002 c 0,-3.878 -3.122,-7 -7,-7 H 68 l -4,-10 z m 14,18 c 10.4579,0 19,8.54211 19,19.00002 0,10.4578 -8.5421,19 -19,19 -10.4578,0 -19,-8.5421 -19,-19 0,-10.45792 8.5422,-19.00003 19,-19.00003 z m 0,6.00001 c -7.215,0 -13,5.78481 -13,13.00001 0,7.2151 5.785,13 13,13 7.2153,0 13,-5.7848 13,-13 0,-7.2152 -5.7847,-13.00002 -13,-13.00002 z"
       fill="#000000"
       stroke="none"
       marker="none"
       visibility="visible"
       display="inline"
       overflow="visible"
       id="path2" />
  </g>
  <g
     id="g996"
     transform="matrix(0.44653687,0,0,0.41351415,4.0176746,68.401372)"
     style="fill:#ffffff;fill-opacity:1">
    <path
       d="M 93.06,23.49 72.95,35.05 v -3.73 a 12,12 0 0 0 -12,-12 H 12 a 12,12 0 0 0 -12,12 v 37.36 a 12,12 0 0 0 12,12 h 48.95 a 12,12 0 0 0 12,-12 v -3.73 l 20.11,11.56 c 3.81,2.19 6.94,0.39 6.94,-4 v -45 c 0,-4.41 -3.12,-6.21 -6.94,-4.02 z"
       id="path979"
       style="fill:#ffffff;fill-opacity:1" />
  </g>
  <g
     id="g1018"
     transform="matrix(0.5547713,0,0,0.5547713,38.199525,15.072426)"
     style="fill:#ffffff;fill-opacity:1">
    <g
       transform="translate(0,-952.36218)"
       id="g1000"
       style="fill:#ffffff;fill-opacity:1">
      <path
         style="color:#000000;font-style:normal;font-variant:normal;font-weight:normal;font-stretch:normal;font-size:medium;line-height:normal;font-family:Sans;-inkscape-font-specification:Sans;text-indent:0;text-align:start;text-decoration:none;text-decoration-line:none;letter-spacing:normal;word-spacing:normal;text-transform:none;writing-mode:lr-tb;direction:ltr;baseline-shift:baseline;text-anchor:start;display:inline;overflow:visible;visibility:visible;opacity:1;fill:#ffffff;fill-opacity:1;stroke:none;stroke-width:6;marker:none;enable-background:accumulate"
         d="m 86.625,5 c -0.235523,0.034925 -0.466857,0.098016 -0.6875,0.1875 l -50,19 C 34.804952,24.616498 33.997278,25.788927 34,27 V 70.71875 C 31.706556,69.47051 28.992789,68.865573 26.09375,69 25.522937,69.026 25.037612,69.10265 24.625,69.15625 16.695748,70.18665 10,76.138 10,83.5625 c 0,3.7122 1.943375,7.0129 4.8125,9 2.869125,1.9871 6.598787,2.79635 10.5625,2.28125 C 33.304252,93.81335 40,87.8619 40,80.4375 40,79.600569 40,44.03125 40,44.03125 L 84,27.3125 V 56.71875 C 81.706556,55.47051 78.992789,54.865573 76.09375,55 75.522937,55.026 75.037612,55.10265 74.625,55.15625 66.695749,56.18665 60,62.138 60,69.5625 c 0,3.7122 1.943375,7.0129 4.8125,9 2.869125,1.9871 6.598787,2.79635 10.5625,2.28125 C 83.304251,79.81335 90,73.8619 90,66.4375 90,65.235424 90,8 90,8 90.013176,6.2961067 88.315597,4.7871477 86.625,5 Z M 84,12.3125 v 8.625 L 40,37.65625 v -8.625 z M 76.34375,61 c 2.395641,-0.1111 4.389887,0.5551 5.6875,1.5625 C 83.328863,63.5699 84,64.8057 84,66.4375 84,69.922 79.950583,74.21425 74.625,74.90625 71.961296,75.25245 69.692771,74.6458 68.21875,73.625 66.744729,72.6041 66,71.3047 66,69.5625 66,66.078 70.049417,61.78585 75.375,61.09375 75.790816,61.03975 76.107753,61.011 76.34375,61 Z m -50,14 c 2.395641,-0.1111 4.389887,0.5551 5.6875,1.5625 C 33.328863,77.5699 34,78.8057 34,80.4375 34,83.922 29.950584,88.21425 24.625,88.90625 21.961295,89.25245 19.692771,88.6458 18.21875,87.625 16.744729,86.6041 16,85.3047 16,83.5625 16,80.078 20.049416,75.78585 25.375,75.09375 25.790816,75.03975 26.107753,75.011 26.34375,75 Z"
         transform="translate(0,952.36218)"
         id="path998" />
    </g>
  </g>
</svg>
