<svg xmlns="http://www.w3.org/2000/svg" viewBox="0 0 24 30" x="0px" y="0px"><title>user, interface, ui, Cc, commons, creative, license</title><g><path d="M12,22A10,10,0,1,1,22,12,10,10,0,0,1,12,22ZM12,4a8,8,0,1,0,8,8A8,8,0,0,0,12,4ZM11,15a1,1,0,0,0-1-1H8V10h2a1,1,0,0,0,0-2H7A1,1,0,0,0,6,9v6a1,1,0,0,0,1,1h3A1,1,0,0,0,11,15Zm7,0a1,1,0,0,0-1-1H15V10h2a1,1,0,0,0,0-2H14a1,1,0,0,0-1,1v6a1,1,0,0,0,1,1h3A1,1,0,0,0,18,15Z"/></g><text x="0" y="39" fill="#000000" font-size="5px" font-weight="bold" font-family="'Helvetica Neue', Helvetica, Arial-Unicode, Arial, Sans-serif">Created by Kmg Design</text><text x="0" y="44" fill="#000000" font-size="5px" font-weight="bold" font-family="'Helvetica Neue', Helvetica, Arial-Unicode, Arial, Sans-serif">from the Noun Project</text></svg>