<?xml version="1.0" encoding="UTF-8" standalone="no"?>
<svg
   xmlns:dc="http://purl.org/dc/elements/1.1/"
   xmlns:cc="http://creativecommons.org/ns#"
   xmlns:rdf="http://www.w3.org/1999/02/22-rdf-syntax-ns#"
   xmlns:svg="http://www.w3.org/2000/svg"
   xmlns="http://www.w3.org/2000/svg"
   xmlns:sodipodi="http://sodipodi.sourceforge.net/DTD/sodipodi-0.dtd"
   xmlns:inkscape="http://www.inkscape.org/namespaces/inkscape"
   version="1.1"
   x="0px"
   y="0px"
   viewBox="0 0 100 125"
   enable-background="new 0 0 100 100"
   xml:space="preserve"
   id="svg8"
   sodipodi:docname="home.svg"
   inkscape:version="1.0.2 (e86c870879, 2021-01-15)"><metadata
     id="metadata14"><rdf:RDF><cc:Work
         rdf:about=""><dc:format>image/svg+xml</dc:format><dc:type
           rdf:resource="http://purl.org/dc/dcmitype/StillImage" /></cc:Work></rdf:RDF></metadata><defs
     id="defs12" /><sodipodi:namedview
     pagecolor="#ffffff"
     bordercolor="#666666"
     borderopacity="1"
     objecttolerance="10"
     gridtolerance="10"
     guidetolerance="10"
     inkscape:pageopacity="0"
     inkscape:pageshadow="2"
     inkscape:window-width="1366"
     inkscape:window-height="704"
     id="namedview10"
     showgrid="false"
     inkscape:zoom="3.856"
     inkscape:cx="50"
     inkscape:cy="62.5"
     inkscape:window-x="0"
     inkscape:window-y="0"
     inkscape:window-maximized="1"
     inkscape:current-layer="svg8"
     inkscape:document-rotation="0" /><path
     fill-rule="evenodd"
     clip-rule="evenodd"
     fill="#000000"
     d="m 95.6,51.9 c 0,-2.3 -0.8,-4.6 -2.5,-6.3 l -37,-37 C 52.7,5.2 47.2,5.2 43.8,8.6 l -37,37 c -1.7,1.7 -2.5,4 -2.5,6.3 0,0 0,45.5 0,45.5 0,4.8 3.9,8.7 8.7,8.7 h 13 c 4.8,0 8.7,-3.9 8.7,-8.7 V 71.2 c 0,-4.8 3.9,-8.7 8.7,-8.7 h 13 c 4.8,0 8.7,3.9 8.7,8.7 v 26.1 c 0,4.8 3.9,8.7 8.7,8.7 h 13 c 4.8,0 8.7,-3.9 8.7,-8.7 0.2,0 0.1,-45.4 0.1,-45.4 z"
     id="path2"
     style="fill:#ffffff;stroke:#ffffff;stroke-opacity:1" /></svg>
