<?xml version="1.0" encoding="UTF-8" standalone="no"?>
<svg
   xmlns:dc="http://purl.org/dc/elements/1.1/"
   xmlns:cc="http://creativecommons.org/ns#"
   xmlns:rdf="http://www.w3.org/1999/02/22-rdf-syntax-ns#"
   xmlns:svg="http://www.w3.org/2000/svg"
   xmlns="http://www.w3.org/2000/svg"
   xmlns:sodipodi="http://sodipodi.sourceforge.net/DTD/sodipodi-0.dtd"
   xmlns:inkscape="http://www.inkscape.org/namespaces/inkscape"
   data-name="Layer 1"
   viewBox="0 0 512 640"
   x="0px"
   y="0px"
   version="1.1"
   id="svg18"
   sodipodi:docname="mapa.svg"
   inkscape:version="1.0.2 (e86c870879, 2021-01-15)">
  <metadata
     id="metadata24">
    <rdf:RDF>
      <cc:Work
         rdf:about="">
        <dc:format>image/svg+xml</dc:format>
        <dc:type
           rdf:resource="http://purl.org/dc/dcmitype/StillImage" />
        <dc:title>Artboard 88</dc:title>
      </cc:Work>
    </rdf:RDF>
  </metadata>
  <defs
     id="defs22" />
  <sodipodi:namedview
     pagecolor="#000000"
     bordercolor="#666666"
     borderopacity="1"
     objecttolerance="10"
     gridtolerance="10"
     guidetolerance="10"
     inkscape:pageopacity="0"
     inkscape:pageshadow="2"
     inkscape:window-width="1366"
     inkscape:window-height="704"
     id="namedview20"
     showgrid="false"
     inkscape:zoom="0.753125"
     inkscape:cx="256"
     inkscape:cy="320"
     inkscape:window-x="0"
     inkscape:window-y="0"
     inkscape:window-maximized="1"
     inkscape:current-layer="svg18"
     inkscape:pagecheckerboard="true"
     inkscape:document-rotation="0" />
  <title
     id="title2">Artboard 88</title>
  <path
     d="m 133.78236,167.00622 68.75673,80.7634 68.7132,-80.70573 c 0.0141,-0.0164 0.0282,-0.0342 0.0436,-0.0506 a 60.307478,60.307478 0 0 0 11.80896,-19.29914 c 0.0188,-0.0553 0.04,-0.10945 0.06,-0.16358 a 85.915326,85.915326 0 0 0 -10.04497,-79.173568 85.870609,85.870609 0 0 0 -141.16149,0 85.918857,85.918857 0 0 0 -10.04496,79.173568 64.044922,64.044922 0 0 0 11.86897,19.45565 z M 202.53909,50.312295 a 67.143376,67.143376 0 1 1 -67.1422,67.142195 67.21869,67.21869 0 0 1 67.1422,-67.142195 z"
     id="path4"
     style="fill:#ffffff;fill-opacity:1;stroke:#ffffff;stroke-width:1.17677;stroke-opacity:1" />
  <path
     d="m 202.53909,165.76944 a 48.314942,48.314942 0 1 0 -48.31376,-48.31495 48.365543,48.365543 0 0 0 48.31376,48.31495 z"
     id="path6"
     style="fill:#ffffff;fill-opacity:1;stroke:#ffffff;stroke-width:1.17677;stroke-opacity:1" />
  <path
     d="M 112.52623,169.7293 53.088389,210.95768 V 574.31353 L 182.53388,484.75137 V 252.98863 l -62.774,-73.72626 a 92.393485,92.393485 0 0 1 -7.23365,-9.53307 z"
     id="path8"
     style="fill:#ffffff;fill-opacity:1;stroke:#ffffff;stroke-width:1.17677;stroke-opacity:1" />
  <path
     d="m 209.77627,268.39382 a 9.2647668,9.2647668 0 0 1 -7.09832,3.31263 4.4329197,4.4329197 0 0 1 -1.31563,-0.1271 v 214.16169 l 122.38483,86.58609 V 210.91061 l -40.3211,-28.98638 z"
     id="path10"
     style="fill:#ffffff;fill-opacity:1;stroke:#ffffff;stroke-width:1.17677;stroke-opacity:1" />
  <polygon
     points="325,485.157 433,410.928 433,102.248 325,177.821 "
     id="polygon12"
     style="fill:#ffffff;fill-opacity:1;stroke:#ffffff;stroke-opacity:1"
     transform="matrix(1.1767771,0,0,1.1767771,-39.87701,1.6090174)" />
</svg>
